HIERARCHY
ROOT Hips
{
	OFFSET 0.00 0.00 0.00
	CHANNELS 6 Xposition Yposition Zposition Xrotation Yrotation Zrotation
	JOINT Spine
	{
		OFFSET 0.00000 7.50895 0.00000
		CHANNELS 3 Xrotation Yrotation Zrotation
		JOINT Head
		{
			OFFSET 0.00000 13.86115 0.00000
			CHANNELS 3 Xrotation Yrotation Zrotation
			End Site
			{
				OFFSET 0.00000 4.52755 0.00000
			}
		}
		JOINT LeftShoulder
		{
			OFFSET 0.00000 8.20478 0.00000
			CHANNELS 3 Xrotation Yrotation Zrotation
			JOINT LeftArm
			{
				OFFSET 6.63596 0.00000 0.00000
				CHANNELS 3 Xrotation Yrotation Zrotation
				JOINT LeftForeArm
				{
					OFFSET 10.27422 0.00000 0.00000
					CHANNELS 3 Yrotation Zrotation Xrotation
					JOINT LeftHand
					{
						OFFSET 8.52215 0.00000 0.00000
						CHANNELS 3 Xrotation Yrotation Zrotation
						JOINT LeftHandThumb1
						{
							OFFSET 0.00000 0.00000 0.00000
							CHANNELS 3 Xrotation Zrotation Yrotation
							End Site
							{
								OFFSET 0.00000 0.00000 3.93700
							}
						}
						End Site
						{
							OFFSET 3.93700 0.00000 0.00000
						}
					}
				}
			}
		}
		JOINT RightShoulder
		{
			OFFSET 0.00000 8.20478 0.00000
			CHANNELS 3 Xrotation Yrotation Zrotation
			JOINT RightArm
			{
				OFFSET -6.63596 0.00000 0.00000
				CHANNELS 3 Xrotation Yrotation Zrotation
				JOINT RightForeArm
				{
					OFFSET -10.27422 0.00000 0.00000
					CHANNELS 3 Yrotation Zrotation Xrotation
					JOINT RightHand
					{
						OFFSET -8.52215 0.00000 0.00000
						CHANNELS 3 Xrotation Yrotation Zrotation
						JOINT RightHandThumb1
						{
							OFFSET 0.00000 0.00000 0.00000
							CHANNELS 3 Xrotation Zrotation Yrotation
							End Site
							{
								OFFSET 0.00000 0.00000 3.93700
							}
						}
						End Site
						{
							OFFSET -3.93700 0.00000 0.00000
						}
					}
				}
			}
		}
	}
	JOINT LeftUpLeg
	{
		OFFSET 3.00056 0.00000 0.00000
		CHANNELS 3 Xrotation Yrotation Zrotation
		JOINT LeftLeg
		{
			OFFSET 0.00000 -16.49085 0.00000
			CHANNELS 3 Xrotation Yrotation Zrotation
			JOINT LeftFoot
			{
				OFFSET 0.00000 -14.55658 0.00000
				CHANNELS 3 Xrotation Yrotation Zrotation
				JOINT LeftToeBase
				{
					OFFSET 0.00000 -1.25038 4.66650
					CHANNELS 3 Xrotation Yrotation Zrotation
					End Site
					{
						OFFSET 0.00000 0.00000 2.95275
					}
				}
			}
		}
	}
	JOINT RightUpLeg
	{
		OFFSET -3.00056 0.00000 0.00000
		CHANNELS 3 Xrotation Yrotation Zrotation
		JOINT RightLeg
		{
			OFFSET 0.00000 -16.49085 0.00000
			CHANNELS 3 Xrotation Yrotation Zrotation
			JOINT RightFoot
			{
				OFFSET 0.00000 -14.55658 0.00000
				CHANNELS 3 Xrotation Yrotation Zrotation
				JOINT RightToeBase
				{
					OFFSET 0.00000 -1.25038 4.66650
					CHANNELS 3 Xrotation Yrotation Zrotation
					End Site
					{
						OFFSET 0.00000 0.00000 2.95275
					}
				}
			}
		}
	}
}
MOTION
Frames: 22
Frame Time: 0.008333
 4.5136 6.3064 -6.2912 37.0185 -14.8160 -29.2950 -3.8420 -8.0331 30.8081 -5.5350 -47.4956 17.1196 15.4274 8.3192 20.8040 6.8792 -62.8405 -66.6336 -41.2244 -0.0000 22.8192 -7.9443 23.8706 19.0265 33.1476 -0.0000 26.2537 -15.0028 -19.9122 -36.0725 38.5059 -0.3874 53.0149 30.5662 -0.0000 -34.2874 -0.2056 0.1947 46.5599 32.8623 0.0000 -24.3270 -120.8291 43.8072 -1.5838 133.7915 0.0000 0.0000 42.6564 -2.1995 -23.2687 10.6099 -0.0000 0.0000 9.9191 37.1639 -49.0949 135.2043 -0.0000 -0.0000 40.3371 1.7986 -17.1120 23.6673 -0.0000 -0.0000
 4.5160 6.3041 -6.2879 37.0267 -14.7805 -29.3310 -3.8540 -8.1228 30.9267 -5.3933 -47.4749 17.2368 15.3728 8.2943 20.8138 6.9696 -63.1025 -66.5839 -41.1431 -0.0000 22.5987 -7.9372 23.9694 18.9421 33.1476 -0.0000 26.2537 -14.9905 -20.0211 -35.8299 37.4932 -2.2670 53.7092 30.3452 -0.0000 -34.4170 -0.3098 0.2960 46.3130 32.8623 0.0000 -24.3270 -120.7644 43.8081 -1.6645 133.7854 -0.0000 0.0000 42.6599 -2.1725 -23.2770 10.5746 0.0000 0.0000 9.8713 37.1571 -49.0237 134.8769 0.0000 0.0000 40.5389 2.3051 -16.6807 24.2043 -0.0000 0.0000
 4.5166 6.3002 -6.2833 37.0047 -14.7351 -29.3916 -3.8370 -8.1931 31.0642 -5.2801 -47.4549 17.3431 15.3045 8.2392 20.8556 6.9696 -63.3478 -66.6456 -41.0095 -0.0000 22.3868 -7.9130 23.9658 18.8900 33.1476 -0.0000 26.2537 -15.0793 -20.1224 -35.6047 36.7036 -4.0490 54.3293 30.2138 -0.0000 -34.6316 -0.5248 0.5053 46.0856 32.8623 0.0000 -24.3270 -120.6846 43.7856 -1.7438 133.7974 -0.0000 -0.0000 42.6310 -2.1811 -23.1873 10.6620 -0.0000 -0.0000 9.7784 37.0742 -48.8782 134.7086 0.0000 -0.0000 40.3282 2.7986 -16.4403 24.2928 0.0000 -0.0000
 4.5212 6.2959 -6.2823 37.0031 -14.7032 -29.4231 -3.8522 -8.2521 31.1753 -5.1686 -47.3859 17.4066 15.2588 8.1733 20.9237 6.8335 -63.5665 -66.8325 -40.8374 -0.0000 22.1591 -7.8758 23.9165 18.8405 33.1476 -0.0000 26.2537 -15.1718 -20.3120 -35.3215 35.9251 -5.6700 54.7803 30.0809 -0.0000 -35.0645 -0.6781 0.6546 46.0160 32.8623 0.0000 -24.3270 -120.6119 43.7851 -1.8303 133.7934 -0.0000 -0.0000 42.6324 -2.1967 -23.2358 10.7446 -0.0000 -0.0000 9.6501 36.9804 -48.7677 134.4422 -0.0000 -0.0000 40.8222 3.3814 -16.8775 22.8954 0.0000 -0.0000
 4.5218 6.2901 -6.2810 36.9898 -14.6812 -29.4620 -3.8455 -8.3294 31.2909 -5.0291 -47.2820 17.5168 15.2194 8.1568 20.9819 6.7213 -63.7800 -66.9808 -40.7023 -0.0000 21.9158 -7.8215 23.9316 18.7079 33.1476 -0.0000 26.2537 -15.2776 -20.5497 -35.0856 35.1052 -7.0469 55.1716 29.8228 -0.0000 -35.3956 -0.6323 0.6127 45.9036 32.8623 0.0000 -24.3270 -120.5810 43.7742 -1.8803 133.8086 -0.0000 -0.0000 42.6306 -2.1938 -23.3202 10.8056 0.0000 -0.0000 9.5106 36.9104 -48.6440 134.2419 -0.0000 -0.0000 40.9813 4.1398 -17.2996 23.1705 -0.0000 -0.0000
 4.5210 6.2843 -6.2799 36.9636 -14.6662 -29.5218 -3.8211 -8.4227 31.4351 -4.8944 -47.1095 17.5904 15.1971 8.1534 21.0316 6.5761 -63.9398 -67.1791 -40.5819 -0.0000 21.7276 -7.7741 23.9039 18.6199 33.1476 -0.0000 26.2537 -15.4582 -20.7378 -34.8466 34.4187 -8.3758 55.4627 29.6758 -0.0000 -35.4969 -0.7029 0.6874 45.6433 32.8623 0.0000 -24.3270 -120.5527 43.7500 -1.9264 133.8183 -0.0000 0.0000 42.6463 -2.1812 -23.2865 10.7141 -0.0000 -0.0000 9.3140 36.8219 -48.4614 134.0827 -0.0000 -0.0000 41.3794 4.9165 -17.3667 22.2665 0.0000 -0.0000
 4.5200 6.2787 -6.2805 36.9369 -14.6656 -29.5760 -3.7999 -8.5134 31.5631 -4.7377 -46.9358 17.6679 15.1639 8.1329 21.0787 6.4760 -63.9865 -67.3820 -40.5386 -0.0000 21.6057 -7.6678 23.8882 18.3902 33.1476 -0.0000 26.2537 -15.6190 -20.8992 -34.5707 33.7466 -9.6871 55.6796 29.5253 -0.0000 -35.4468 -0.8844 0.8656 45.6201 32.8623 0.0000 -24.3270 -120.5463 43.7210 -1.9531 133.8338 0.0000 0.0000 42.6549 -2.1739 -23.3490 10.7605 -0.0000 0.0000 9.1064 36.7384 -48.2872 133.9588 -0.0000 -0.0000 41.9005 5.6016 -17.7227 19.6770 -0.0000 -0.0000
 4.5182 6.2730 -6.2816 36.8961 -14.6843 -29.6472 -3.7675 -8.5982 31.7064 -4.5637 -46.7759 17.7379 15.1042 8.1025 21.1241 6.4423 -63.9692 -67.5730 -40.5656 -0.0000 21.5160 -7.5646 23.8899 18.1552 33.1476 -0.0000 26.2537 -15.7426 -21.0490 -34.2758 33.0577 -11.0573 55.8334 29.4876 -0.0000 -35.3879 -0.9263 0.8960 45.9573 32.8623 0.0000 -24.3270 -120.5638 43.6648 -1.9612 133.8521 -0.0000 0.0000 42.6704 -2.1621 -23.3813 10.7868 -0.0000 -0.0000 8.9083 36.6881 -48.1083 133.8705 -0.0000 0.0000 42.1872 6.2444 -17.9064 17.4603 -0.0000 0.0000
 4.5243 6.2672 -6.2863 36.8706 -14.7244 -29.6619 -3.7655 -8.6543 31.8085 -4.4250 -46.6291 17.7998 15.0941 8.0761 21.1168 6.5194 -63.9835 -67.5934 -40.6607 -0.0000 21.3717 -7.5743 23.9159 18.1598 33.1476 -0.0000 26.2537 -15.8734 -21.1383 -33.9769 32.2625 -12.6666 55.9493 29.4759 -0.0000 -34.9623 -1.0779 1.0423 45.9662 32.8623 0.0000 -24.3270 -120.5855 43.6501 -1.9614 133.8331 -0.0000 -0.0000 42.6800 -2.1485 -23.4279 10.7423 0.0000 -0.0000 8.6634 36.5326 -47.9805 133.7380 -0.0000 -0.0000 42.2225 6.1015 -17.2809 19.2935 -0.0000 -0.0000
 4.5281 6.2620 -6.2936 36.8523 -14.7988 -29.6692 -3.7775 -8.7257 31.8949 -4.2586 -46.4767 17.8470 15.1315 8.0963 21.1240 6.4653 -63.9825 -67.7040 -40.6976 -0.0000 21.2436 -7.5099 23.9440 17.9952 33.1476 -0.0000 26.2537 -15.9366 -21.2575 -33.6361 31.3952 -14.4095 56.0216 29.7510 -0.0000 -34.5009 -1.2395 1.2247 45.3500 32.8623 0.0000 -24.3270 -120.6625 43.6309 -1.9157 133.8239 0.0000 0.0000 42.7006 -2.1111 -23.5876 10.7145 -0.0000 0.0000 8.3746 36.3865 -47.8532 133.6769 -0.0000 -0.0000 42.3081 5.9414 -17.2866 19.7258 0.0000 0.0000
 4.5340 6.2554 -6.3012 36.8120 -14.8510 -29.6636 -3.7477 -8.8112 31.9725 -4.1289 -46.2753 17.8652 15.1883 8.1202 21.1299 6.3965 -64.0219 -67.8009 -40.7214 -0.0000 21.1286 -7.4980 23.9262 17.9799 33.1476 -0.0000 26.2537 -16.0198 -21.2889 -33.3310 30.5369 -16.2434 56.1132 30.0611 -0.0000 -34.1495 -1.3964 1.3914 45.1109 32.8623 0.0000 -24.3270 -120.6989 43.6360 -1.8885 133.7982 -0.0000 -0.0000 42.7059 -2.0828 -23.6264 10.6682 -0.0000 -0.0000 8.1929 36.2841 -47.7834 133.6328 -0.0000 0.0000 42.1296 5.7736 -16.6234 20.4708 -0.0000 -0.0000
 4.5411 6.2502 -6.3097 36.7309 -14.8941 -29.6721 -3.6457 -8.9067 32.0627 -3.9943 -46.0391 17.8543 15.2427 8.1634 21.1352 6.2692 -64.0634 -67.9317 -40.6672 -0.0000 20.8543 -7.5595 23.9886 18.0780 33.1476 -0.0000 26.2537 -16.2035 -21.2047 -33.0475 29.7668 -18.0585 56.1713 30.3874 -0.0000 -33.6903 -1.5693 1.5753 44.9019 32.8623 0.0000 -24.3270 -120.7015 43.6239 -1.8460 133.7777 0.0000 -0.0000 42.7475 -2.0871 -23.7240 10.5531 -0.0000 0.0000 7.9524 36.1149 -47.6462 133.6873 -0.0000 -0.0000 42.0525 5.5250 -16.9450 19.5937 -0.0000 0.0000
 4.5474 6.2436 -6.3187 36.6659 -14.9317 -29.6752 -3.5765 -8.9917 32.1578 -3.8820 -45.8564 17.7749 15.2601 8.1720 21.1259 6.2775 -64.1749 -67.9447 -40.6755 -0.0000 20.6408 -7.5934 24.1255 18.0640 33.1476 -0.0000 26.2537 -16.2960 -21.2852 -32.8083 28.9152 -19.5460 56.2065 30.6666 -0.0000 -33.1543 -1.6833 1.6919 44.8676 32.8623 0.0000 -24.3270 -120.6961 43.6179 -1.8249 133.7571 0.0000 -0.0000 42.7559 -2.0925 -23.8004 10.4324 -0.0000 -0.0000 7.7230 35.9509 -47.5169 133.7467 0.0000 -0.0000 41.9458 5.2994 -16.9466 19.0770 -0.0000 0.0000
 4.5501 6.2387 -6.3286 36.5901 -14.9962 -29.6956 -3.5269 -9.0349 32.2483 -3.7229 -45.6733 17.7452 15.2393 8.1326 21.1856 6.2266 -64.2570 -68.0730 -40.6161 -0.0000 20.5298 -7.4740 23.9743 17.8938 33.1476 -0.0000 26.2537 -16.4884 -21.3312 -32.6230 28.2164 -20.8125 56.2168 30.7941 -0.0000 -32.8344 -1.7831 1.7889 44.9212 32.8623 0.0000 -24.3270 -120.7456 43.5768 -1.7599 133.7513 -0.0000 -0.0000 42.7658 -2.1022 -23.8814 10.4465 0.0000 0.0000 7.4840 35.8369 -47.3587 133.8409 -0.0000 -0.0000 41.7855 5.0286 -16.6245 18.7604 0.0000 -0.0000
 4.5505 6.2344 -6.3368 36.5173 -15.0419 -29.7019 -3.4732 -9.1242 32.3102 -3.5234 -45.4215 17.7478 15.2298 8.0780 21.2509 6.1168 -64.2494 -68.2842 -40.5923 -0.0000 20.4203 -7.3252 24.0425 17.5119 33.1476 -0.0000 26.2537 -16.5517 -21.4125 -32.3696 27.4560 -21.9114 56.1913 30.8182 -0.0000 -32.4374 -1.8769 1.8811 44.9518 32.8623 0.0000 -24.3270 -120.7897 43.5622 -1.6864 133.7505 -0.0000 -0.0000 42.7905 -2.0987 -23.9138 10.3648 -0.0000 -0.0000 7.3743 35.7785 -47.2896 133.9407 0.0000 -0.0000 41.6879 5.2345 -16.2438 18.9525 -0.0000 -0.0000
 4.5531 6.2288 -6.3468 36.4133 -15.0922 -29.7079 -3.3805 -9.1898 32.3550 -3.3102 -45.1887 17.8097 15.1907 8.0191 21.3100 6.1688 -64.3062 -68.3550 -40.5860 -0.0000 20.3958 -7.3160 23.9803 17.5311 33.1476 -0.0000 26.2537 -16.6999 -21.4018 -32.1522 26.8188 -22.9296 56.1543 30.7413 -0.0000 -32.1082 -1.8401 1.8359 45.0796 32.8623 0.0000 -24.3270 -120.8237 43.5463 -1.5999 133.7400 -0.0000 0.0000 42.8324 -2.0768 -23.9601 10.2672 -0.0000 0.0000 7.2291 35.7129 -47.2020 134.0169 -0.0000 -0.0000 41.7269 5.2618 -15.8920 18.7611 0.0000 0.0000
 4.5552 6.2246 -6.3581 36.3123 -15.1653 -29.7220 -3.2880 -9.2470 32.4175 -3.1388 -44.9529 17.8532 15.2311 8.0288 21.3320 6.1898 -64.3737 -68.3532 -40.6218 -0.0000 20.2785 -7.3236 23.9162 17.5898 33.1476 -0.0000 26.2537 -16.8240 -21.3861 -31.9832 26.1507 -23.8925 56.1534 30.5890 -0.0000 -31.7228 -1.8691 1.8584 45.1797 32.8623 0.0000 -24.3270 -120.8838 43.5122 -1.4996 133.7319 -0.0000 -0.0000 42.8479 -2.0688 -24.0370 10.3321 -0.0000 0.0000 7.0205 35.6367 -47.0737 134.1241 -0.0000 -0.0000 41.6715 5.1020 -15.5642 17.0766 -0.0000 -0.0000
 4.5576 6.2208 -6.3706 36.2031 -15.2559 -29.7273 -3.2202 -9.2536 32.4498 -2.9388 -44.7952 17.9591 15.2531 7.9959 21.3667 6.2587 -64.4200 -68.3190 -40.7103 -0.0000 20.2384 -7.3439 23.9624 17.6061 33.1476 -0.0000 26.2537 -16.9291 -21.3452 -31.7915 25.5803 -24.8407 56.1650 30.4237 -0.0000 -31.5962 -1.8664 1.8598 45.1179 32.8623 0.0000 -24.3270 -120.9685 43.4840 -1.3626 133.7204 -0.0000 0.0000 42.8706 -2.0370 -24.0925 10.2481 -0.0000 -0.0000 6.8596 35.5964 -46.9912 134.1917 0.0000 -0.0000 41.5715 4.9798 -14.9411 17.9470 0.0000 -0.0000
 4.5629 6.2169 -6.3842 36.0947 -15.3433 -29.7094 -3.1745 -9.2127 32.4493 -2.7387 -44.6809 18.1195 15.2972 7.9613 21.3743 6.4300 -64.4926 -68.1069 -40.8455 -0.0000 20.2240 -7.2696 24.1613 17.3101 33.1476 -0.0000 26.2537 -17.0627 -21.2787 -31.6146 25.0818 -25.9083 56.2049 30.2986 -0.0000 -31.4469 -1.9460 1.9520 44.9284 32.8623 0.0000 -24.3270 -121.0367 43.4637 -1.2311 133.6945 -0.0000 0.0000 42.8874 -2.0475 -24.1659 10.1723 -0.0000 -0.0000 6.7132 35.5493 -46.9436 134.2251 0.0000 -0.0000 41.3380 4.7693 -14.0795 15.3564 -0.0000 -0.0000
 4.5707 6.2124 -6.3973 35.9986 -15.4152 -29.6935 -3.1027 -9.2269 32.4790 -2.6215 -44.5123 18.2109 15.3068 7.9597 21.3821 6.5065 -64.6062 -68.0098 -40.9033 -0.0000 20.1557 -7.2405 24.2644 17.1794 33.1476 -0.0000 26.2537 -17.1048 -21.2220 -31.4552 24.4896 -27.0060 56.3104 30.2810 -0.0000 -31.4852 -2.0475 2.0640 44.7893 32.8623 0.0000 -24.3270 -121.0783 43.4521 -1.1384 133.6635 -0.0000 -0.0000 42.8773 -2.0519 -24.2440 10.1696 -0.0000 0.0000 6.5169 35.4387 -46.8669 134.2354 -0.0000 -0.0000 41.5222 4.4207 -14.3759 14.8342 -0.0000 0.0000
 4.5754 6.2075 -6.4097 35.9067 -15.4791 -29.6691 -3.0622 -9.2353 32.5012 -2.5124 -44.3605 18.2742 15.2596 7.9166 21.3884 6.6836 -64.7133 -67.8628 -40.9507 -0.0000 20.0443 -7.1138 24.3547 16.8376 33.1476 -0.0000 26.2537 -17.2280 -21.0136 -31.3026 24.1975 -28.2599 56.4702 30.4386 -0.0000 -31.5838 -2.0808 2.1384 44.2363 32.8623 0.0000 -24.3270 -121.1336 43.4503 -1.0343 133.6445 -0.0000 -0.0000 42.8627 -2.0774 -24.2234 10.1175 -0.0000 0.0000 6.3429 35.3127 -46.7966 134.2188 -0.0000 0.0000 41.5007 3.9557 -14.3851 13.5001 0.0000 -0.0000
 4.5842 6.2011 -6.4221 35.8328 -15.5524 -29.6224 -3.0815 -9.1895 32.4931 -2.4074 -44.2677 18.3549 15.2457 7.8920 21.4245 6.7395 -64.8419 -67.7714 -41.0516 -0.0000 19.8176 -6.9451 24.3451 16.4622 33.1476 -0.0000 26.2537 -17.3095 -20.9616 -31.2043 23.8017 -29.4074 56.6592 30.5619 -0.0000 -31.7594 -2.2370 2.3475 43.6419 32.8623 0.0000 -24.3270 -121.1931 43.4818 -0.9463 133.6117 0.0000 -0.0000 42.8468 -2.0595 -24.2379 10.1580 0.0000 -0.0000 6.1258 35.1261 -46.7356 134.1730 -0.0000 -0.0000 41.8581 3.5767 -15.7298 14.4192 0.0000 0.0000
